<?xml version="1.0" encoding="utf-8"?>
<!-- Generator: Adobe Illustrator 26.0.0, SVG Export Plug-In . SVG Version: 6.00 Build 0)  -->
<svg version="1.1" id="Capa_1" xmlns="http://www.w3.org/2000/svg" xmlns:xlink="http://www.w3.org/1999/xlink" x="0px" y="0px"
	 viewBox="0 0 1920 1080" style="enable-background:new 0 0 1920 1080;" xml:space="preserve">
<style type="text/css">
	.st0{fill:#984F8B;stroke:#000000;stroke-miterlimit:10;}
	.st1{fill:#A48BC9;stroke:#000000;stroke-miterlimit:10;}
	.st2{fill:#D983B5;stroke:#000000;stroke-miterlimit:10;}
</style>
<path class="st0" d="M1244.6,846.7c-329.5-158.4-810.1-3-1097.2-383.5C84.7,380.1-38.5,215.8,11.9,132c4.8-7.9,10.4-17.2,21.5-22.6
	C113.5,71.1,236,361.3,487.8,527.7c220.1,145.4,553.2,137.5,771.3,195.8c49.4,13.2,210.2,51,390.5,103.5
	c98.9,28.7,316.2,65.1,133.9,195.7c-67,48-187,90-231,21C1522.8,997.1,1346.5,895.7,1244.6,846.7z"/>
<path class="st1" d="M-41.5,626.5c-33.7,128,462.8,437.5,935,432c68.7-0.8,110.8-1.3,167-19c253.2-79.8,245.9-336.6,490-431
	c125.5-48.5,194.4-6.5,276-86c75.1-73.1,111.8-201.1,78-230c-15.6-13.4-45.8-5-63,4c-60.3,31.3-40.9,109.9-82,167
	c-61.1,84.9-186.4,25.7-333,78c-158.7,56.7-138.9,171.3-291,278c-180.6,126.7-475.8,152.3-679,43c-200.1-107.7-255.8-316.6-400-297
	C23.4,570-31.6,588.8-41.5,626.5z"/>
<path class="st1" d="M1447.5,898.5"/>
<path class="st2" d="M1836.5,210.5c-190.1,209.8-666,206-666,206C591.4,411.9,30.1,158,49.5,55.5c5.9-31.3,65.3-44.2,92-50
	c152.9-33.2,265.8,96.1,444,182c57.8,27.9,221.7,94.3,422,92c253.9-2.9,475-117,511-136c0,0,204.1-107.8,357-98
	c10.4,0.7,31.3,2.8,40,17C1937.8,98.7,1861.6,182.8,1836.5,210.5z"/>
</svg>
